#!OML:ASF F:\VICON\USERDATA\INSTALL\rory3\rory3.ASF
:FULLY-SPECIFIED
:DEGREES
29
root 0.6095782746310754 17.894950012278 9.47954126297871 -1.1577152661664798 -1.301621671800408 -6.3178503510071575
lfemur -18.998522895780948 -4.723584776641178 -11.980881818387108
ltibia 6.89494857926875
lfoot 18.140107991522786 -10.799883241698236
ltoes -12.334791803344492
rfemur 5.289865976383249 3.8845601965580974 31.48650250318038
rtibia 25.956079157720175
rfoot -8.975745311770137 -8.633467269583669
rtoes -13.922941953757874
lowerback -1.0 0.48833937728671506 3.6556699726190143
upperback -0.6352128870788343 2.1062550376565903 2.1084310536201216
thorax -6.140950854333436 0.5551130381779975 0.13159748671309557
lowerneck -16.911372546141585 -3.78382701077167 -1.307732753322267
upperneck 20.671507754155513 -5.501054737696354 2.010728897704972
head 9.389495888149591 -2.408627846856018 0.09258695690803392
lclavicle -1.1377317977397505e-14 -2.712856164423894e-17
lhumerus -32.340379938687775 4.904353487739629 82.37826152625301
lradius 26.334332184936617
lwrist 9.543034176323753
lhand -33.44488987464917 15.372152020327785
lfingers nan
lthumb -6.556557671523942 45.76444088902857
rclavicle -1.0298664412928148e-14 1.085954237925961e-15
rhumerus -26.119241616871516 -17.553257873317676 -77.02598451235383
rradius 33.723590382808425
rwrist 0.1263765122226559
rhand -20.972273245882118 -1.0
rfingers nan
rthumb 5.484696105836024 -5.561793644165681
30
root 0.6493552285504551 17.938891446267153 9.224190183723978 -1.8930494525747892 -0.9448814327398782 -5.423966838991355
lfemur -18.678502674659924 -3.7395187538043064 -14.391986032500837
ltibia 10.494566521444995
lfoot 17.388527759127268 -14.790654483515283
ltoes -1.5356524002913803
rfemur 5.019041594628293 3.3466070063903324 29.39769879346462
rtibia 32.99993662864385
rfoot -4.14423089789625 -8.000152133301228
rtoes -17.314751709568576
lowerback -1.0 0.5111453096220235 2.3997858957205995
upperback -0.4211601967403605 2.0371128635231672 1.665350932757269
thorax -5.843846274088335 0.505500337567492 0.5447701150757842
lowerneck -16.57336027206156 -4.297254508171948 -1.4590262250388073
upperneck 20.667366919864314 -6.310894595778566 2.0351719755828865
head 9.35848448899832 -2.7245230837359564 0.06542794228004536
lclavicle -2.2490725369126158e-14 -5.586562441642806e-15
lhumerus -31.903587920008643 7.32896095647527 81.29754982082153
lradius 23.851004934421702
lwrist 6.086624592408697
lhand -33.087310446194635 20.214569644976734
lfingers nan
lthumb -6.23539925590636 50.49975327334272
rclavicle -2.2223448908893226e-14 -4.0525587023519004e-15
rhumerus -27.049705072651218 -20.193149280220943 -76.42053693825905
rradius 32.931332449251705
rwrist 0.9530789215576307
rhand -21.021717024928464 -1.0
rfingers nan
rthumb 5.435740582403195 -5.21385224661444
31
root 0.6806260834003368 17.992568498873943 9.332594792405464 -2.380984610877109 -0.5235026578618149 -5.591144082950815
lfemur -17.29389349225361 -3.292278929577625 -15.176989692944492
ltibia 12.396769275270664
lfoot 16.072338737358525 -15.407624710932826
ltoes -3.5426254884258386
rfemur 2.488552954257093 1.1771513769980975 27.85277526959749
rtibia 42.14943489675105
rfoot 5.794715106403525 -5.6195619125794405
rtoes -13.798680925755242
lowerback -1.0 0.20707411031370834 3.0732157369115995
upperback -0.582960067973622 1.8657439934334725 1.6076811547132508
thorax -5.711118985084531 0.3825432477353754 0.22218022475923882
lowerneck -15.895654580811714 -4.409396767179589 -1.7520002112758073
upperneck 20.89368801129081 -6.532526977205769 2.374120896616949
head 9.410065739382404 -2.7825831330216806 0.2060004129079563
lclavicle -4.938478362979872e-15 2.2162262047589587e-14
lhumerus -32.62743862239723 8.1175206720792 80.97952299980417
lradius 23.244808098168967
lwrist 5.939488126442496
lhand -31.757619844061185 21.74102037744968
lfingers nan
lthumb -4.878315793390245 52.22895575287319
rclavicle -4.6633712827209766e-15 2.372659610483139e-14
rhumerus -29.422553110722315 -22.89702988550185 -75.3338674457451
rradius 31.340597090517583
rwrist 1.5693441918823217
rhand -20.397449575713843 -1.0
rfingers nan
rthumb 6.074134718176165 -4.463877588618795
32
root 0.7269989390485587 18.05457067223023 10.020189392685495 -3.0303640528811404 -1.3650761383011742 -5.016842488686468
lfemur -15.008896675294451 -2.8186662241305847 -16.734234718287816
ltibia 12.61359939307573
lfoot 14.813178639736318 -15.161645626911298
ltoes -0.8284128540916562
rfemur -1.8339912233210285 0.44990866595085954 25.466661194185157
rtibia 52.02535824259504
rfoot 17.573148047831715 -3.263918223397086
rtoes 1.630996578110088
lowerback -1.0 0.30015417157052027 2.766226556510025
upperback -0.3180142386401016 2.013979718143538 1.4496112593878594
thorax -5.476468471848139 0.4962671994601213 0.2984229109252228
lowerneck -17.064857381994052 -4.30374697649493 -1.787486674884579
upperneck 21.292936705722223 -6.3375424435303565 2.379126820792069
head 9.71823136924813 -2.6798730931555133 0.1945225910366784
lclavicle 1.7904820155140596e-14 7.552696805904656e-15
lhumerus -32.895833384130185 8.209055013269921 80.96137848073909
lradius 24.13219918843399
lwrist 4.513724855444753
lhand -31.516951095627498 17.30698302325615
lfingers nan
lthumb -4.562066129319502 47.90842564885925
rclavicle 1.799223957420561e-14 8.765444477910583e-15
rhumerus -30.601391944985085 -24.18889334751323 -74.7004722981784
rradius 30.342152925651682
rwrist 1.0586310708849447
rhand -19.048738471260023 -1.0
rfingers nan
rthumb 7.454956839731365 -5.069040245302506
33
root 0.7708367291458776 18.077530817916948 11.011535935205979 -3.4351809384643013 -1.723827150317891 -3.3772815133735072
lfemur -13.099488922247787 -3.084341044706566 -19.27802278860624
ltibia 13.028862171593968
lfoot 12.870732966451769 -13.954011847571646
ltoes 0.3969498999767129
rfemur -7.239171204787599 -0.45607561004695807 22.390954477509695
rtibia 62.67668425694997
rfoot 17.231657440251077 -3.48968560275292
rtoes 7.159956513910877
lowerback -1.0 0.2517801137486357 0.9911863700817
upperback -0.5720513550388697 1.7014374271531139 0.9922451615247649
thorax -5.979021140541919 0.40342859937500847 1.0171132234243194
lowerneck -16.585287606176202 -3.9811307869434778 -1.6594099827409239
upperneck 21.17624498738473 -5.868672945597543 2.4344587290447572
head 9.61033006153016 -2.4936998943497284 0.232686479461394
lclavicle -1.0372248576773212e-14 -2.759294866618267e-14
lhumerus -33.56387095292819 5.576669601346573 82.03315823620343
lradius 26.17054412966933
lwrist 7.116701049784495
lhand -31.6226417907349 4.605946528090874
lfingers nan
lthumb -4.679255317764007 35.18794474422113
rclavicle -1.010717959831746e-14 -2.6699696594506736e-14
rhumerus -32.63302426143467 -23.53846547700188 -74.42070852516386
rradius 29.718435756984015
rwrist 1.655413569067349
rhand -17.930761606167273 -1.0
rfingers nan
rthumb 8.573722656963259 -5.17949661461768
